<?xml version="1.0" encoding="utf-8"?>
<!-- Generator: Adobe Illustrator 23.0.3, SVG Export Plug-In . SVG Version: 6.00 Build 0)  -->
<!DOCTYPE svg PUBLIC "-//W3C//DTD SVG 1.1//EN" "http://www.w3.org/Graphics/SVG/1.1/DTD/svg11.dtd" [
	<!ENTITY ns_extend "http://ns.adobe.com/Extensibility/1.0/">
	<!ENTITY ns_ai "http://ns.adobe.com/AdobeIllustrator/10.0/">
	<!ENTITY ns_graphs "http://ns.adobe.com/Graphs/1.0/">
	<!ENTITY ns_vars "http://ns.adobe.com/Variables/1.0/">
	<!ENTITY ns_imrep "http://ns.adobe.com/ImageReplacement/1.0/">
	<!ENTITY ns_sfw "http://ns.adobe.com/SaveForWeb/1.0/">
	<!ENTITY ns_custom "http://ns.adobe.com/GenericCustomNamespace/1.0/">
	<!ENTITY ns_adobe_xpath "http://ns.adobe.com/XPath/1.0/">
]>
<svg version="1.1" id="Layer_1" xmlns:x="&ns_extend;" xmlns:i="&ns_ai;" xmlns:graph="&ns_graphs;"
	 xmlns="http://www.w3.org/2000/svg" xmlns:xlink="http://www.w3.org/1999/xlink" x="0px" y="0px" viewBox="0 0 149.1 68"
	 style="enable-background:new 0 0 149.1 68;" xml:space="preserve">
<style type="text/css">
	.Drop_x0020_Shadow{fill:none;}
	.Outer_x0020_Glow_x0020_5_x0020_pt{fill:none;}
	.Jive_GS{fill:#A6D0E4;}
	.st0{fill:url(#SVGID_1_);}
	.st1{opacity:0.3;fill:#FFFFFF;}
</style>
<metadata>
	<sfw  xmlns="&ns_sfw;">
		<slices></slices>
		<sliceSourceBounds  bottomLeftOrigin="true" height="46.3" width="128.3" x="35.8" y="-111.6"></sliceSourceBounds>
	</sfw>
</metadata>
<g>
	<g>
		<linearGradient id="SVGID_1_" gradientUnits="userSpaceOnUse" x1="74.5745" y1="57.8511" x2="74.5745" y2="11.5532">
			<stop  offset="0" style="stop-color:#51C63F"/>
			<stop  offset="1" style="stop-color:#B1CA21"/>
		</linearGradient>
		<path class="st0" d="M115.6,57.9h-82c-12.8,0-23.1-10.4-23.1-23.1v0c0-12.8,10.4-23.1,23.1-23.1h82c12.8,0,23.1,10.4,23.1,23.1v0
			C138.7,47.5,128.4,57.9,115.6,57.9z"/>
		<path class="st1" d="M33.6,15.6h82c10.8,0,19.6,8.5,20.1,19.1c0-0.3,0.1-0.7,0.1-1c0-11.1-9-20.1-20.1-20.1h-82
			c-11.1,0-20.1,9-20.1,20.1c0,0.3,0,0.7,0.1,1C14,24.1,22.8,15.6,33.6,15.6z"/>
	</g>
	<g>
		<path d="M31.4,35.7l5.2-0.3c0.1,0.8,0.3,1.5,0.7,1.9c0.6,0.7,1.4,1.1,2.4,1.1c0.8,0,1.4-0.2,1.8-0.5c0.4-0.4,0.6-0.8,0.6-1.3
			c0-0.5-0.2-0.9-0.6-1.2c-0.4-0.4-1.3-0.7-2.8-1c-2.4-0.5-4.1-1.2-5.1-2.1c-1-0.9-1.5-2-1.5-3.4c0-0.9,0.3-1.8,0.8-2.6
			c0.5-0.8,1.3-1.4,2.4-1.9s2.5-0.7,4.3-0.7c2.2,0,4,0.4,5.1,1.3s1.9,2.2,2.1,4l-5.1,0.3c-0.1-0.8-0.4-1.4-0.9-1.7s-1-0.5-1.8-0.5
			c-0.6,0-1.1,0.1-1.4,0.4c-0.3,0.3-0.5,0.6-0.5,1c0,0.3,0.1,0.5,0.4,0.8c0.3,0.2,0.9,0.4,1.8,0.6c2.4,0.5,4.1,1,5.1,1.6
			c1,0.5,1.8,1.2,2.2,1.9s0.7,1.6,0.7,2.6c0,1.1-0.3,2.2-0.9,3.1c-0.6,0.9-1.5,1.7-2.6,2.2s-2.5,0.7-4.2,0.7c-3,0-5.1-0.6-6.2-1.7
			C32.2,38.9,31.6,37.4,31.4,35.7z"/>
		<path d="M49.3,23.9h4.9v3.3h-4.9V23.9z M49.3,28.7h4.9v12.7h-4.9V28.7z"/>
		<path d="M65.4,28.7H70v12l0,0.6c0,0.8-0.2,1.6-0.5,2.3c-0.3,0.7-0.8,1.3-1.4,1.8c-0.6,0.4-1.3,0.8-2.1,1c-0.9,0.2-1.9,0.3-3,0.3
			c-2.6,0-4.3-0.4-5.3-1.1c-1-0.8-1.4-1.8-1.4-3.1c0-0.2,0-0.4,0-0.6l4.7,0.5c0.1,0.4,0.3,0.7,0.6,0.9c0.4,0.2,0.8,0.4,1.4,0.4
			c0.7,0,1.2-0.2,1.6-0.6c0.3-0.4,0.5-1,0.5-2v-1.9c-0.5,0.6-1,1-1.4,1.2c-0.8,0.4-1.6,0.6-2.4,0.6c-1.7,0-3.1-0.7-4.1-2.2
			c-0.7-1.1-1.1-2.4-1.1-4.2c0-2,0.5-3.5,1.4-4.5c1-1,2.2-1.6,3.8-1.6c1,0,1.8,0.2,2.4,0.5c0.6,0.3,1.2,0.9,1.8,1.7V28.7z
			 M60.9,34.9c0,0.9,0.2,1.6,0.6,2c0.4,0.4,0.9,0.7,1.5,0.7c0.6,0,1.1-0.2,1.5-0.7c0.4-0.5,0.6-1.2,0.6-2.1s-0.2-1.6-0.6-2.1
			c-0.4-0.5-1-0.7-1.6-0.7c-0.6,0-1.1,0.2-1.5,0.7S60.9,33.9,60.9,34.9z"/>
		<path d="M72.3,28.7h4.5v2.1c0.7-0.8,1.4-1.5,2.1-1.8c0.7-0.4,1.5-0.5,2.5-0.5c1.3,0,2.4,0.4,3.2,1.2c0.8,0.8,1.1,2,1.1,3.7v8.1
			h-4.9v-7c0-0.8-0.1-1.4-0.4-1.7c-0.3-0.3-0.7-0.5-1.2-0.5c-0.6,0-1.1,0.2-1.4,0.7c-0.4,0.4-0.6,1.2-0.6,2.4v6.1h-4.9V28.7z"/>
		<path d="M87,33.2h7.1v3.8H87V33.2z"/>
		<path d="M96,23.9h5.4v17.5H96V23.9z"/>
		<path d="M104.4,28.7h4.5v2.1c0.7-0.8,1.4-1.5,2.1-1.8c0.7-0.4,1.5-0.5,2.5-0.5c1.3,0,2.4,0.4,3.2,1.2c0.8,0.8,1.1,2,1.1,3.7v8.1
			h-4.9v-7c0-0.8-0.1-1.4-0.4-1.7c-0.3-0.3-0.7-0.5-1.2-0.5c-0.6,0-1.1,0.2-1.4,0.7s-0.6,1.2-0.6,2.4v6.1h-4.9V28.7z"/>
	</g>
</g>
<g>
</g>
<g>
</g>
<g>
</g>
<g>
</g>
<g>
</g>
</svg>
